<svg height="512pt" viewBox="-39 0 512 512" width="512pt" xmlns="http://www.w3.org/2000/svg"><path d="m357.9375 353.320312-55.457031-90.789062c-4.726563-7.742188-13.140625-12.460938-22.210938-12.460938h-29.597656v-43.007812h-44.210937v43.007812h-34.980469c-6.324219 0-12.429688 2.300782-17.179688 6.472657l-53.851562 47.304687 5.882812-40.304687 9.847657-67.539063 4.421874-6.683594c4.335938-6.554687 3.984376-15.144531-.867187-21.324218l-14.851563-18.902344 1.304688-28.167969c.242188-5.234375-3.453125-9.832031-8.617188-10.71875-5.570312-.957031-10.882812 2.714844-11.960937 8.261719l-6.554687 33.839844c-1.777344 9.160156-.726563 18.640625 3.015624 27.183594l4.542969 10.390624-22.664062 155.355469c-2.234375 15.332031 15.839843 25.144531 27.480469 14.917969l43.71875-38.417969 27.230468-23.921875 6.355469 163.015625h119.664063l5.554687-142.550781 30.980469 50.710938c1.703125 2.78125 1.9375 6.21875.632812 9.207031l-33.457031 76.726562 25.605469 11.175781 41.441406-95.035156c2.515625-5.761718 2.058594-12.382812-1.21875-17.746094zm0 0" fill="#ffc999"/><path d="m335.867188 424.480469c-1.222657-11.171875-10.003907-20.066407-21.125-21.460938l-12.761719 29.265625h30.480469zm0 0" fill="#e89c5d"/><path d="m206.460938 242.210938c8.355468 3.441406 17.503906 5.355468 27.101562 5.355468 5.902344 0 11.628906-.730468 17.113281-2.085937v-38.417969h-44.214843zm0 0" fill="#e89c5d"/><path d="m323.023438 135.539062c-4.144532 0-7.503907-3.363281-7.503907-7.507812v-26.066406c0-47.945313-39.007812-86.949219-86.953125-86.949219-47.945312 0-86.949218 39.003906-86.949218 86.949219v26.066406c0 4.144531-3.359376 7.507812-7.507813 7.507812-4.144531 0-7.507813-3.363281-7.507813-7.507812v-26.066406c0-56.222656 45.742188-101.964844 101.964844-101.964844s101.964844 45.742188 101.964844 101.964844v26.066406c0 4.144531-3.359375 7.507812-7.507812 7.507812zm0 0" fill="#333356"/><path d="m162.351562 106.757812h-21.121093c-16.675781 0-30.246094 13.566407-30.246094 30.246094 0 16.679688 13.566406 30.246094 30.246094 30.246094h21.121093c2.765626 0 5.003907-2.242188 5.003907-5.003906v-50.484375c0-2.765625-2.238281-5.003907-5.003907-5.003907zm0 0" fill="#40c6c2"/><path d="m315.902344 106.757812h-21.121094c-2.765625 0-5.007812 2.238282-5.007812 5.003907v50.484375c0 2.761718 2.242187 5.003906 5.007812 5.003906h21.121094c16.675781 0 30.246094-13.566406 30.246094-30.246094 0-16.679687-13.566407-30.246094-30.246094-30.246094zm0 0" fill="#40c6c2"/><path d="m157.355469 101.964844v54.765625c0 39.328125 31.882812 71.210937 71.210937 71.210937s71.207032-31.882812 71.207032-71.210937v-54.765625c0-33.859375-27.445313-61.308594-61.304688-61.308594h-19.804688c-33.859374 0-61.308593 27.449219-61.308593 61.308594zm0 0" fill="#ffc999"/><path d="m236.863281 191.546875h-15.125c-5.769531 0-10.609375-1.460937-14.382812-4.339844-3.601563-2.746093-5.339844-6.136719-6.164063-8.492187-.628906-1.8125-.796875-3.207032-.839844-3.722656-.019531-.210938-.027343-.417969-.027343-.625v-1.242188c0-4.140625 3.355469-7.5 7.5-7.5s7.5 3.359375 7.5 7.5v.550781c.007812.027344.019531.0625.03125.09375.210937.609375.582031 1.117188 1.097656 1.511719 1.085937.828125 2.910156 1.265625 5.285156 1.265625h15.125c4.140625 0 7.5 3.355469 7.5 7.5 0 4.140625-3.359375 7.5-7.5 7.5zm-21.566406-17.804687" fill="#4a4a68"/><path d="m238.46875 40.65625h-19.804688c-.351562 0-.695312.023438-1.046874.027344 33.375.558594 60.265624 27.773437 60.265624 61.28125v54.769531c0 35.605469-26.132812 65.101563-60.265624 70.367187 3.570312.550782 7.226562.839844 10.949218.839844 39.328125 0 71.207032-31.878906 71.207032-71.207031v-54.769531c0-33.859375-27.445313-61.308594-61.304688-61.308594zm0 0" fill="#e89c5d"/><path d="m100.449219 303.847656-2.574219 17.484375c-.507812 3.492188 1.910156 6.734375 5.402344 7.242188.3125.046875.621094.066406.929687.066406 3.117188 0 5.847657-2.289063 6.3125-5.464844l4.714844-32.3125zm0 0" fill="#e89c5d"/><path d="m296.390625 255.664062c-4.527344-3.570312-10.183594-5.59375-16.121094-5.59375h-17.964843c0 18.628907-15.105469 33.734376-33.738282 33.734376-18.632812 0-33.738281-15.105469-33.738281-33.734376h-23.34375c-3.78125 0-7.480469.820313-10.863281 2.375l1.757812 45.363282v.007812l6.359375 163.015625 55.746094 11 63.914063-11 5.554687-142.550781zm0 0" fill="#7393d8"/><path d="m280.269531 250.070312h-6l-2.363281 62.898438-5.554688 147.859375h22.046876l5.554687-142.546875 2.4375-62.617188c-4.527344-3.570312-10.183594-5.59375-16.121094-5.59375zm0 0" fill="#3d6fb7"/><path d="m91.011719 437.230469v23.597656l13.023437 8 15.324219-8v-23.597656c0-3.355469-2.71875-6.074219-6.074219-6.074219h-16.199218c-3.355469 0-6.074219 2.71875-6.074219 6.074219zm0 0" fill="#40c6c2"/><path d="m150.660156 437.230469v23.597656l14.0625 8 14.289063-8v-23.597656c0-3.355469-2.722657-6.074219-6.078125-6.074219h-16.199219c-3.355469 0-6.074219 2.71875-6.074219 6.074219zm0 0" fill="#e8626c"/><path d="m301.386719 408.628906h-10.664063c-10.789062 0-19.535156 8.746094-19.535156 19.535156v4.121094l24.691406 7 25.046875-7v-4.121094c0-10.789062-8.75-19.535156-19.539062-19.535156zm0 0" fill="#ffc999"/><path d="m228.53125 380.042969c-.941406 0-1.902344-.179688-2.832031-.558594-3.835938-1.566406-5.679688-5.945313-4.113281-9.785156l6.851562-16.804688h-6.015625c-3.601563 0-6.953125-1.785156-8.960937-4.777343-2.011719-2.988282-2.398438-6.765626-1.035157-10.101563l9.21875-22.613281c1.566407-3.839844 5.945313-5.679688 9.785157-4.117188 3.839843 1.566406 5.683593 5.949219 4.117187 9.789063l-6.851563 16.804687h6.015626c3.601562 0 6.949218 1.785156 8.960937 4.773438 2.007813 2.992187 2.398437 6.769531 1.035156 10.101562l-9.21875 22.613282c-1.1875 2.914062-3.996093 4.675781-6.957031 4.675781zm0 0" fill="#efd76f"/><path d="m219.183594 446.558594c0-7.882813 6.53125-14.273438 14.585937-14.273438h110.957031c8.054688 0 14.585938 6.390625 14.585938 14.273438 0 7.882812-6.53125 14.269531-14.585938 14.269531l-53.933593 10-57.027344-10c-8.050781 0-14.582031-6.386719-14.582031-14.269531zm0 0" fill="#ededed"/><path d="m50.515625 476.085938v35.914062h332.730469v-35.914062c0-8.425782-6.832032-15.257813-15.257813-15.257813h-302.21875c-8.425781 0-15.253906 6.832031-15.253906 15.257813zm0 0" fill="#4a4a68"/><path d="m367.988281 460.828125h-27.578125c8.425782 0 15.257813 6.832031 15.257813 15.257813v35.914062h27.574219v-35.914062c0-8.425782-6.828126-15.257813-15.253907-15.257813zm0 0" fill="#333356"/><path d="m344.726562 432.285156h-28.421874c8.054687 0 14.585937 6.390625 14.585937 14.273438 0 7.882812-6.53125 14.269531-14.585937 14.269531h28.421874c8.054688 0 14.585938-6.386719 14.585938-14.269531 0-7.882813-6.53125-14.273438-14.585938-14.273438zm0 0" fill="#c9c9c9"/><path d="m277.078125 97.867188h-29.734375c-1.816406 0-3.460938.992187-4.398438 2.546874-2.9375 4.875-8.269531 8.140626-14.378906 8.140626-6.105468 0-11.445312-3.265626-14.378906-8.140626-.9375-1.554687-2.582031-2.546874-4.398438-2.546874h-29.949218c-13.683594 0-26.070313 8.707031-30.082032 21.789062-6.699218 21.855469 9.460938 41.875 30.296876 41.875 10.742187 0 20.222656-5.328125 25.980468-13.476562 4.957032-7.027344 13.210938-10.980469 21.8125-10.980469h1.433594c8.699219 0 16.902344 4.148437 21.984375 11.214843 6.007813 8.347657 15.953125 13.667969 27.128906 13.214844 16.066407-.648437 29.320313-13.488281 30.433594-29.527344 1.296875-18.613281-13.417969-34.109374-31.75-34.109374zm0 0" fill="#4a4a68"/><path d="m277.078125 97.867188h-20.878906c18.332031 0 33.046875 15.496093 31.753906 34.109374-.898437 12.878907-9.621094 23.6875-21.339844 27.789063 3.667969 1.277344 7.640625 1.90625 11.78125 1.738281 16.066407-.648437 29.320313-13.488281 30.4375-29.527344 1.292969-18.613281-13.421875-34.109374-31.753906-34.109374zm0 0" fill="#333356"/><path d="m104.761719 493.921875h-13.367188c-4.144531 0-7.503906-3.359375-7.503906-7.507813 0-4.144531 3.359375-7.507812 7.503906-7.507812h13.367188c4.144531 0 7.507812 3.363281 7.507812 7.507812 0 4.148438-3.363281 7.507813-7.507812 7.507813zm0 0" fill="#ededed"/><path d="m152.976562 493.921875h-13.363281c-4.148437 0-7.507812-3.359375-7.507812-7.507813 0-4.144531 3.359375-7.507812 7.507812-7.507812h13.363281c4.148438 0 7.507813 3.363281 7.507813 7.507812 0 4.148438-3.363281 7.507813-7.507813 7.507813zm0 0" fill="#ededed"/><path d="m289.246094 498.289062c-4.144532 0-7.507813-3.359374-7.507813-7.507812v-8.734375c0-4.144531 3.363281-7.507813 7.507813-7.507813 4.148437 0 7.507812 3.363282 7.507812 7.507813v8.734375c0 4.148438-3.359375 7.507812-7.507812 7.507812zm0 0" fill="#1f1f42"/><path d="m325.828125 498.289062c-4.144531 0-7.503906-3.359374-7.503906-7.507812v-8.734375c0-4.144531 3.359375-7.507813 7.503906-7.507813 4.148437 0 7.507813 3.363282 7.507813 7.507813v8.734375c0 4.148438-3.359376 7.507812-7.507813 7.507812zm0 0" fill="#1f1f42"/><g fill="#4a4a68"><path d="m429.882812 145.730469c-2.464843-2.113281-5.71875-3.042969-8.925781-2.554688l-53.917969 8.265625c-5.464843.835938-9.433593 5.457032-9.433593 10.988282v32.445312c-2.171875-.722656-4.492188-1.121094-6.90625-1.121094-12.085938 0-21.921875 9.835938-21.921875 21.925782 0 12.085937 9.835937 21.921874 21.921875 21.921874 12.089843 0 21.921875-9.835937 21.921875-21.921874v-49.90625l46.121094-7.066407v26.800781c-2.171876-.726562-4.492188-1.121093-6.90625-1.121093-12.089844 0-21.921876 9.832031-21.921876 21.921875s9.832032 21.921875 21.921876 21.921875c12.089843 0 21.921874-9.832031 21.921874-21.921875v-52.140625c0-3.246094-1.414062-6.320313-3.875-8.4375zm0 0"/><path d="m63.234375 392.957031-11.679687-8.089843c-4.445313-3.074219-10.175782-3.429688-14.964844-.921876-4.785156 2.507813-7.757813 7.421876-7.757813 12.828126v19.136718c-2.175781-.722656-4.496093-1.121094-6.910156-1.121094-12.085937 0-21.921875 9.832032-21.921875 21.921876 0 12.089843 9.835938 21.921874 21.921875 21.921874 12.089844 0 21.925781-9.832031 21.925781-21.921874v-38.917969l10.839844 7.507812c3.410156 2.359375 8.085938 1.507813 10.445312-1.898437 2.359376-3.410156 1.507813-8.085938-1.898437-10.445313zm0 0"/></g></svg>